<svg xmlns="http://www.w3.org/2000/svg" viewBox="0 0 512 520" x="0px" y="0px"><title>Sad-Emoji-Emotion-Face-Expression-Feeling</title><path d="M511,211.31c0-.28,0-.57-.06-.85l-.06-.45c-.05-.3-.11-.59-.19-.89,0-.11-.05-.23-.08-.35a9.78,9.78,0,0,0-.43-1.18c0-.06-.06-.12-.09-.19-.15-.31-.31-.62-.48-.92-.08-.12-.16-.24-.23-.36s-.32-.46-.49-.68-.19-.24-.3-.36a6.32,6.32,0,0,0-.56-.6c-.11-.11-.21-.22-.33-.32l-.14-.14-40-34.58V83.72a35,35,0,0,0-35-35H327.84L285,11.67a44.53,44.53,0,0,0-57.92,0L184.16,48.72H79.47a35,35,0,0,0-35,35v85.72L4.46,204l-.14.14c-.12.1-.22.21-.33.32a6.32,6.32,0,0,0-.56.6c-.11.12-.2.24-.3.36s-.33.45-.49.68-.15.24-.23.36c-.17.3-.33.61-.48.92,0,.07-.07.13-.09.19a9.78,9.78,0,0,0-.43,1.18c0,.12,0,.24-.08.35-.08.3-.14.59-.19.89l-.06.45c0,.28-.05.57-.06.85,0,.09,0,.18,0,.27V470.35C1,492.78,20.27,511,44,511H468c23.69,0,43-18.25,43-40.68V211.58C511,211.49,511,211.4,511,211.31Zm-26.08-.42-17.38,12.56V195.87ZM240.12,26.8a24.72,24.72,0,0,1,31.76,0l25.37,21.92h-82.5ZM64.48,83.72a15,15,0,0,1,15-15H432.53a15,15,0,0,1,15,15v154.2L256,376.44,64.48,237.92V83.72Zm-20,112.15v27.58L27.1,210.89ZM491,470.35c0,11.4-10.3,20.68-23,20.68H44c-12.66,0-23-9.28-23-20.68V231.16L250.14,396.88a10,10,0,0,0,11.72,0L491,231.16Z"/><circle cx="180.93" cy="195.24" r="19.29"/><circle cx="331.07" cy="195.24" r="19.29"/><path d="M299,249.68c-.35-1.11-9.13-27.27-43-27.27s-42.67,26.16-43,27.27h0a9.87,9.87,0,0,0-.53,3.18,10,10,0,0,0,19.56,3c.68-1.83,5.77-13.41,24-13.41s23.3,11.58,24,13.41a10,10,0,0,0,19.56-3,9.87,9.87,0,0,0-.53-3.18Z"/></svg>
